<?xml version="1.0" encoding="UTF-8" standalone="no"?>
<!-- Created with Inkscape (http://www.inkscape.org/) -->

<svg
   width="53.266724mm"
   height="49.976624mm"
   viewBox="0 0 53.266727 49.976624"
   version="1.1"
   id="svg1"
   xml:space="preserve"
   inkscape:version="1.3.2 (091e20e, 2023-11-25, custom)"
   sodipodi:docname="DeprivedLogo-SkullI-Background.svg"
   inkscape:export-filename="ExportedSVG.svg"
   inkscape:export-xdpi="96.036186"
   inkscape:export-ydpi="96.036186"
   xmlns:inkscape="http://www.inkscape.org/namespaces/inkscape"
   xmlns:sodipodi="http://sodipodi.sourceforge.net/DTD/sodipodi-0.dtd"
   xmlns="http://www.w3.org/2000/svg"
   xmlns:svg="http://www.w3.org/2000/svg"><sodipodi:namedview
     id="namedview1"
     pagecolor="#505050"
     bordercolor="#eeeeee"
     borderopacity="1"
     inkscape:showpageshadow="0"
     inkscape:pageopacity="0"
     inkscape:pagecheckerboard="0"
     inkscape:deskcolor="#505050"
     inkscape:document-units="mm"
     inkscape:zoom="2.9757808"
     inkscape:cx="123.497"
     inkscape:cy="140.63536"
     inkscape:window-width="2560"
     inkscape:window-height="1361"
     inkscape:window-x="1591"
     inkscape:window-y="-9"
     inkscape:window-maximized="1"
     inkscape:current-layer="layer3"
     inkscape:export-bgcolor="#ffffff00" /><defs
     id="defs1"><inkscape:path-effect
       effect="fillet_chamfer"
       id="path-effect9"
       is_visible="true"
       lpeversion="1"
       nodesatellites_param="F,0,0,1,0,0,0,1 @ F,0,0,1,0,8.5571463,0,1 @ F,0,0,1,0,0,0,1 @ F,0,0,1,0,0,0,1 @ F,0,0,1,0,0,0,1 @ F,0,0,1,0,0,0,1 @ F,0,0,1,0,9.7139083,0,1 @ F,0,0,1,0,7.0752071,0,1 @ F,0,1,1,0,9.7139083,0,1 @ F,0,0,1,0,0,0,1 @ F,0,0,1,0,0,0,1"
       radius="0"
       unit="px"
       method="auto"
       mode="F"
       chamfer_steps="1"
       flexible="false"
       use_knot_distance="true"
       apply_no_radius="true"
       apply_with_radius="true"
       only_selected="false"
       hide_knots="false" /><inkscape:path-effect
       effect="fillet_chamfer"
       id="path-effect15-0-4"
       is_visible="true"
       lpeversion="1"
       nodesatellites_param="F,0,0,1,0,1.4808499,0,1 @ F,0,0,1,0,0,0,1 @ F,0,0,1,0,2.2013412,0,1 @ F,0,0,1,0,3.4590691,0,1 @ F,0,1,1,0,0,0,1 @ F,0,0,1,0,1.2806214,0,1"
       radius="0"
       unit="px"
       method="auto"
       mode="F"
       chamfer_steps="1"
       flexible="false"
       use_knot_distance="true"
       apply_no_radius="true"
       apply_with_radius="true"
       only_selected="false"
       hide_knots="false" /><inkscape:path-effect
       effect="fillet_chamfer"
       id="path-effect15-0-54"
       is_visible="true"
       lpeversion="1"
       nodesatellites_param="F,0,0,1,0,1.4808499,0,1 @ F,0,0,1,0,0,0,1 @ F,0,0,1,0,2.2013412,0,1 @ F,0,0,1,0,3.4590691,0,1 @ F,0,1,1,0,0,0,1 @ F,0,0,1,0,1.2806214,0,1"
       radius="0"
       unit="px"
       method="auto"
       mode="F"
       chamfer_steps="1"
       flexible="false"
       use_knot_distance="true"
       apply_no_radius="true"
       apply_with_radius="true"
       only_selected="false"
       hide_knots="false" /></defs><g
     inkscape:groupmode="layer"
     id="layer6"
     inkscape:label="FullProfil"
     transform="translate(-75.228843,-57.954247)"><g
       inkscape:groupmode="layer"
       id="layer3"
       inkscape:label="BackgroundColourLayer"
       style="display:none;opacity:1"
       inkscape:highlight-color="#b8d8be"><rect
         style="display:inline;fill:#f2f2f2;stroke-width:0.128722"
         id="rect29"
         width="59.00034"
         height="62.58733"
         x="72.94722"
         y="51.200962"
         ry="1.2272025"
         inkscape:label="Background Colour" /></g><g
       inkscape:groupmode="layer"
       id="layer2"
       inkscape:label="MainBorder"
       style="display:none"
       inkscape:highlight-color="#4436a9"><g
         id="g69"
         style="display:inline"><rect
           style="display:inline;fill:#000000;stroke-width:0.264583"
           id="rect3"
           width="4.979085"
           height="130.34535"
           x="37.466156"
           y="17.522022" /><rect
           style="fill:#000000;stroke-width:0.264583"
           id="rect3-2"
           width="4.979085"
           height="130.34535"
           x="162.86777"
           y="17.556767" /><rect
           style="fill:#000000;stroke-width:0.264583"
           id="rect3-2-7"
           width="4.979085"
           height="130.34535"
           x="17.536777"
           y="-167.8186"
           transform="rotate(90)" /><rect
           style="fill:#000000;stroke-width:0.264583"
           id="rect3-2-7-6"
           width="4.979085"
           height="130.34535"
           x="143.39011"
           y="-167.67055"
           transform="rotate(90)"
           inkscape:label="rect3-2-7-6" /></g></g><g
       inkscape:groupmode="layer"
       id="layer9"
       inkscape:label="AltBorder"
       style="display:none"
       inkscape:highlight-color="#3691a9"><path
         style="display:inline;fill:#000000;stroke-width:0.264583"
         id="path69"
         d="m 163.39213,26.01862 c 0.0595,1.760183 0.10362,3.520297 0.0865,5.281485 -0.0182,1.574702 -0.12409,3.146425 -0.24,4.716373 -0.13263,1.669346 -0.20918,3.342301 -0.24829,5.016272 -0.0311,1.795338 -0.0381,3.590941 -0.0674,5.386353 -0.0362,1.789428 -0.11946,3.577344 -0.17194,5.366256 -0.0629,1.804365 -0.0639,3.609742 -0.0709,5.414928 5.3e-4,1.878517 0.047,3.756628 0.0801,5.634762 0.12732,23.663539 1.17119,34.516993 -0.13963,48.862551 -0.21839,1.18058 -0.66339,12.29919 -0.80218,13.49183 -0.12893,1.09367 -0.20088,2.19281 -0.22473,3.29352 -0.0133,1.02629 0.0763,2.05064 0.17169,3.0715 0.0975,1.2208 0.15031,2.4443 0.19591,3.66791 0.0538,1.15451 0.0247,2.30919 -0.007,3.46364 -0.036,0.75303 -0.0547,1.50749 -0.14161,2.25687 -0.0917,0.69542 -0.15048,1.39319 -0.15933,2.09455 -0.006,0.64192 0.0536,1.28266 0.11035,1.92156 0.0493,0.33817 0.0355,0.6751 -0.0101,1.01203 -0.009,0.0349 -0.01,0.0728 -0.0264,0.10472 -0.018,0.0343 -0.0392,-0.0735 -0.0322,-0.11153 0.0239,-0.13026 0.0517,-0.26094 0.0982,-0.38497 0.28978,-0.77432 0.54206,-0.66164 1.45032,-1.33171 0.70226,-0.21534 1.40995,-0.075 1.99728,0.27724 -0.46721,-0.44423 -1.07871,-0.67285 -1.70487,-0.76906 -0.0843,0.004 -0.8737,-0.0591 -0.29755,0.028 0.30912,0.0601 -0.0964,-0.0119 -0.17735,-0.0276 -0.5318,-0.13119 -1.07477,-0.14733 -1.61973,-0.14178 -1.15619,0.087 -2.31145,0.15477 -3.47119,0.16447 -1.65654,-0.0606 -3.30593,-0.23332 -4.96081,-0.32638 -2.48886,-0.11776 -4.98288,-0.0852 -7.47408,-0.0968 -3.41703,-0.0447 -6.83123,-0.19478 -10.24705,-0.28624 -3.353,-0.1231 -6.70802,-0.10619 -10.06247,-0.0942 -3.28545,0.0414 -6.57092,0.0694 -9.85656,0.0939 -3.50933,0.0587 -7.01891,0.0952 -10.52862,0.12316 -3.46508,0.0181 -6.930044,0.0668 -10.395199,0.0633 -3.031641,0.0274 -6.063205,-0.0223 -9.094515,-0.0613 -2.772171,-0.0655 -5.545219,-0.003 -8.316452,0.0733 -2.947992,0.0921 -5.89676,0.0356 -8.845147,0.015 -2.598389,-0.0811 -5.19788,-0.0319 -7.795604,0.0448 -1.793804,0.0797 -3.588663,0.0779 -5.383504,0.0548 -1.213101,-0.0551 -2.427076,-0.0832 -3.640553,-0.12745 -1.118496,-0.0552 -2.236935,-0.11386 -3.356988,-0.11978 -0.932685,-0.0132 -1.864299,0.0386 -2.793325,0.11595 -0.601864,0.0496 -1.203889,0.0897 -1.807475,0.10905 -0.531786,0.009 -1.064276,0.005 -1.595712,0.0274 -0.333942,0.0106 -0.667888,0.0107 -1.001898,0.008 -0.299506,-0.0359 -0.04313,0.029 0.124833,0.0886 0.495276,0.1953 0.866307,0.56583 1.114338,1.03048 0.06866,0.083 0.03789,0.25924 0.148016,0.21499 0.05921,-0.30182 0.134881,-0.6001 0.216135,-0.89746 0.194146,-0.46519 0.306311,-0.95191 0.405561,-1.44461 0.132628,-0.86218 0.196821,-1.73315 0.224338,-2.6045 0.0077,-1.20037 0.05566,-2.39843 0.139935,-3.59569 0.128196,-1.4357 0.245142,-2.87091 0.319953,-4.31049 0.07363,-1.7705 0.01836,-3.54172 -0.02938,-5.31188 -0.04374,-1.95214 -0.209148,-3.8983 -0.324863,-5.84682 -0.135723,-2.34544 -0.314534,-4.68797 -0.471361,-7.03201 -0.177969,-2.62474 -0.321278,-5.25217 -0.412117,-7.88141 -0.06707,-2.22802 -0.108633,-4.45716 -0.120256,-6.686177 -0.02513,-2.03318 -0.03606,-4.06673 -0.03168,-6.10008 -0.0081,-1.938877 0.06149,-3.876817 0.08478,-5.815232 0.03685,-1.769692 0.02476,-3.540185 -0.0053,-5.309872 -0.02885,-1.549056 -0.05931,-3.097824 -0.04003,-4.647152 0.03622,-1.849994 0.197567,-3.693732 0.346128,-5.537084 0.214733,-2.1726 0.357195,-4.350078 0.456454,-6.530673 0.08438,-1.87742 0.113067,-3.756216 0.07616,-5.635062 -0.009,-1.700813 -0.08307,-3.400102 -0.103656,-5.10065 -0.01532,-2.054948 0.02151,-4.109636 0.03932,-6.164403 0.01532,-1.718209 0.05163,-3.436829 0.01987,-5.15498 -0.01815,-1.432354 -0.07851,-2.863374 -0.130717,-4.294701 -0.05593,-1.043702 -0.09372,-2.087314 -0.09444,-3.132495 0.0063,-0.930854 0.0029,-1.861645 -0.0016,-2.792502 -0.01521,-0.994743 -0.0346,-1.989368 -0.05969,-2.983931 -0.01431,-0.85235 -0.01857,-1.704734 -0.01942,-2.557182 -0.0048,-0.626981 0.03249,-1.25219 0.08404,-1.876636 0.06426,-0.611606 0.124761,-1.223436 0.173003,-1.836535 0.0342,-0.458368 0.04634,-0.917746 0.05898,-1.377051 1.4e-4,-0.416482 -0.03128,-0.83104 -0.06558,-1.245656 -0.003,-0.287881 -0.08889,-0.589679 -0.03344,-0.876421 0.02664,0.253241 -0.11549,0.474708 -0.24343,0.682085 0.0054,0.111512 -0.399354,0.346913 -0.413506,0.429467 -0.0024,0.01324 0.02191,0.01555 0.03287,0.02332 -0.06372,0.05104 0.439269,0.14739 0.33043,0.130068 -1.480685,-0.23565 -0.869106,-0.151677 -0.628417,-0.119195 0.247176,0.0308 0.479396,0.153834 0.706527,0.250951 0.803519,0.384886 1.664301,0.535836 2.554423,0.596807 0.241789,0.01656 0.484129,-0.02382 0.726191,-0.03573 1.970246,-0.146838 3.940215,-0.298869 5.910069,-0.451498 1.998935,-0.118673 3.995978,-0.255473 5.997562,-0.320937 0.869937,-0.02413 1.748552,-0.06734 2.594684,0.165319 -0.183504,-0.02834 -0.365868,-0.06546 -0.550516,-0.08502 -0.09715,-0.01029 0.191857,0.03707 0.287467,0.05715 0.118542,0.0249 0.236855,0.0509 0.354955,0.07781 0.440285,0.100313 0.879686,0.204709 1.319929,0.305286 1.277546,0.272523 2.561225,0.530444 3.865134,0.630862 1.140521,0.07535 2.283799,0.09645 3.425976,0.135536 1.136679,0.0453 2.272765,0.09915 3.410045,0.127668 1.197107,0.03539 2.393894,0.08255 3.590965,0.120672 1.384265,0.06666 2.769108,0.02006 4.153188,-0.01943 1.235527,-0.04678 2.471073,-0.08926 3.706662,-0.134066 1.447509,-0.04904 2.89329,-0.134458 4.339793,-0.205869 1.952779,-0.115921 3.902927,-0.270117 5.854153,-0.40893 2.471819,-0.222353 4.948634,-0.378607 7.428474,-0.473335 2.1382,-0.07717 4.27801,-0.08836 6.41721,-0.06057 1.71755,0.0252 3.4353,0.06832 5.15162,0.138455 10.50057,0.387832 11.60035,1.64247 19.93961,1.138729 1.30812,-0.08073 2.6178,-0.124719 3.92821,-0.138906 1.05471,-0.0085 2.10974,0.0074 3.16432,0.0261 1.50776,0.02751 3.01502,-0.02561 4.52174,-0.07453 1.91927,-0.07046 3.83912,-0.116101 5.75963,-0.129179 1.72621,-0.01165 3.45234,0.0073 5.17854,0.0106 1.12531,3.7e-4 2.24956,-0.04504 3.37279,-0.109232 0.49678,-0.02222 0.98525,-0.115864 1.47928,-0.164955 2.40585,-0.208716 3.17749,0.153543 6.97335,-2.013225 0.002,-0.224202 0.0252,-0.449355 0.005,-0.672605 -0.0404,-0.436022 -0.69067,-1.160197 -0.96289,-1.459515 -0.33605,-0.279591 -0.68345,-0.55033 -1.10429,-0.684216 -0.18966,-0.07399 -0.37622,-0.155972 -0.56356,-0.235572 -0.68219,-0.268348 -1.41446,-0.405489 -2.14635,-0.322702 -0.2015,0.01525 -0.40307,0.02219 -0.60494,0.02394 -0.25724,0.0074 -0.51393,0.02646 -0.76948,0.05697 -0.26762,0.03256 -0.5361,0.05498 -0.80487,0.07545 -0.43937,0.04227 -0.87932,0.07954 -1.31725,0.135475 -0.42693,0.06048 -0.85341,0.121273 -1.28203,0.168974 -1.00007,0.112086 -2.00515,0.170092 -3.01151,0.181348 -1.72689,0.03156 -3.45389,0.05228 -5.18098,0.06986 -1.94159,0.03541 -3.88316,0.0709 -5.82476,0.105277 -1.45049,0.01756 -2.90036,0.0077 -4.34996,-0.0514 -1.12259,-0.02204 -2.24506,-0.03886 -3.36747,0.007 -1.35152,0.05437 -2.70189,0.130468 -4.05194,0.213356 -1.34524,0.06743 -2.69319,0.108534 -4.0389,0.02446 -1.41056,-0.07943 -2.82164,-0.158508 -4.22845,-0.2907 -1.82753,-0.172195 -3.65197,-0.377074 -5.48137,-0.529642 -1.91997,-0.146004 -3.84053,-0.284824 -5.7651,-0.355539 -1.7739,-0.05967 -3.54783,-0.111522 -5.32311,-0.09521 -16.610702,0.245956 -16.775102,0.302062 -35.380558,1.03946 -1.120413,-0.0489 -2.24173,-0.0734 -3.361989,-0.12671 -1.036164,-0.04146 -2.075239,-0.06141 -3.105346,-0.191585 -0.0011,-1.5e-4 -0.820613,-0.12106 -0.826323,-0.119584 -0.120243,0.03107 0.490043,0.06424 0.365974,0.06983 -0.371697,0.01677 -0.926528,-0.202063 -1.303096,-0.2388 -1.107033,-0.242297 -2.182995,-0.610619 -3.313518,-0.744624 -7.509002,0.274045 -19.684266,-0.394035 -22.55762,1.094472 -0.196487,0.737623 -0.299767,3.383984 -0.250937,3.943321 0.01923,0.297216 0.04049,0.594694 0.04456,0.892535 0.006,0.37332 7.94e-4,0.746904 -0.01685,1.119872 -0.03028,0.605441 -0.08504,1.209008 -0.139887,1.812641 -0.05759,0.762161 -0.09165,1.525834 -0.07804,2.290358 0.01278,0.873993 0.0474,1.747451 0.07226,2.621158 0.0186,0.995276 0.02817,1.990672 0.0273,2.986127 0.01508,0.950688 0.01704,1.901487 0.01863,2.85228 0.02077,1.091073 0.07662,2.180775 0.146577,3.269774 0.0837,1.392047 0.148918,2.785531 0.183853,4.179678 0.02352,1.700956 0.04465,3.401838 0.04145,5.103027 -0.0053,2.065091 -0.003,4.130188 -0.02982,6.195174 -0.01595,1.732621 -0.01847,3.464324 0.05502,5.195972 0.0297,1.795817 0.08246,3.592213 0.0057,5.387834 -0.08218,2.111553 -0.229293,4.219419 -0.434448,6.322735 -0.190117,1.957843 -0.385892,3.917664 -0.418277,5.885992 -0.02627,1.595065 0.01773,3.189407 0.06782,4.783712 0.03629,1.724792 0.05631,3.449701 0.03172,5.174914 -0.03018,1.959374 -0.02577,3.919262 -0.04304,5.878798 0.0083,2.064631 0.0036,4.129318 0.03522,6.193814 0.06018,2.265913 0.119846,4.531853 0.221488,6.796433 0.135477,2.66326 0.272359,5.32639 0.425003,7.98874 0.140075,2.34265 0.286771,4.68509 0.392557,7.0296 0.10701,1.90802 0.227541,3.81581 0.279429,5.72634 0.03542,1.64444 0.05239,3.29073 -0.03726,4.93388 -0.09095,1.43955 -0.240848,2.87408 -0.360024,4.31143 -0.07382,1.21642 -0.121732,2.43423 -0.202462,3.65025 -0.04782,0.63487 -0.08273,1.27505 -0.233286,1.89605 -0.0992,0.43364 -0.270486,0.8487 -0.355663,1.28651 -0.131628,0.55462 -0.246184,1.11753 -0.284398,1.68709 -0.01638,0.60474 0.01746,1.209 0.25096,1.77626 0.35442,0.77954 0.900017,1.40746 1.708647,1.73575 0.394986,0.14092 0.789676,0.25441 1.212467,0.26224 0.453673,0.0315 0.908428,0.0324 1.362678,0.0105 0.522637,-0.007 1.044988,-0.0375 1.568021,-0.0348 0.693248,-0.0161 1.385533,-0.0585 2.074715,-0.1371 0.802266,-0.0688 1.604086,-0.15065 2.409782,-0.16768 1.062805,-0.009 2.123771,0.0235 3.185232,0.0753 1.260951,0.0476 2.522455,0.0963 3.784528,0.0913 1.861759,7.9e-4 3.722018,-0.0851 5.580756,-0.18568 2.527787,-0.11901 5.057182,-0.20108 7.588284,-0.15589 2.989265,0.0438 5.979705,0.026 8.968872,-0.0187 2.725187,-0.0211 5.450237,-0.0567 8.175577,-0.0566 3.055427,0.008 6.11073,0.0159 9.166072,-0.0182 3.467058,-0.0536 6.9346,-0.0552 10.40184,-0.0937 3.50742,-0.03 7.0146,-0.081 10.52212,-0.0943 3.28737,-0.0232 6.57474,-0.032 9.862,-0.0696 3.2959,-0.0473 6.59284,-0.0562 9.8886,0.007 3.42365,0.10679 6.84525,0.26146 10.26857,0.37449 2.42075,0.0834 4.84295,0.13144 7.26106,0.27964 1.70784,0.11895 3.4115,0.29052 5.12076,0.38767 1.21265,0.0508 2.42542,0.039 3.63862,0.009 0.20157,-0.007 0.40902,-0.0168 0.60745,0.0225 0.23559,0.0498 0.46974,0.10649 0.7079,0.14357 0.204,0.0262 0.35089,0.041 0.54496,0.0417 0.0396,1.5e-4 -0.29849,-0.0492 -0.15114,-0.0288 -0.36145,-0.0779 -0.71396,-0.22424 -0.98385,-0.4851 -0.0176,-0.017 0.0406,0.0272 0.061,0.0408 0.95875,0.71195 1.7562,1.00231 2.99358,0.70397 0.47341,-0.33457 0.98638,-0.61923 1.42022,-1.00373 0.16237,-0.1439 0.24428,-0.36042 0.33914,-0.55555 0.24476,-0.50338 0.32684,-1.05268 0.37067,-1.60333 0.0466,-0.63135 0.0451,-1.26307 -0.0298,-1.89268 -0.0485,-0.44137 -0.11011,-0.88132 -0.0854,-1.32705 0.0276,-0.59815 0.10549,-1.19084 0.16947,-1.7859 0.0562,-0.84398 0.0547,-1.69008 0.0661,-2.53559 0.0232,-1.24612 0.0109,-2.49243 -0.0409,-3.7378 -0.0473,-1.2781 -0.11402,-2.55564 -0.18468,-3.83263 -0.0409,-0.8809 -0.11589,-1.76092 -0.10757,-2.64346 0.0188,-0.94906 0.0857,-1.8965 0.1934,-2.83969 0.13673,-1.10838 0.31487,-2.20985 0.53611,-3.30473 0.20525,-1.24025 0.37747,-2.48372 0.42046,-3.74219 0.0986,-1.75493 0.14031,-3.51132 0.0671,-5.26855 -0.0519,-1.72024 -0.10589,-3.44195 -0.28309,-5.15493 -0.13609,-1.22309 -0.30674,-2.44487 -0.34996,-3.67593 -0.009,-1.18465 0.0423,-2.36869 0.14713,-3.54887 0.14468,-1.420641 0.32697,-2.837678 0.43167,-4.262068 0.0987,-1.363757 0.15922,-2.730529 0.20654,-4.096985 0.0384,-1.216991 0.0814,-2.43373 0.07,-3.651634 -0.004,-1.118317 -0.0244,-2.236856 -0.0862,-3.353639 -1.17136,-18.66192 0.12671,-3.461205 -0.36288,-22.83651 -0.0484,-1.829585 -0.0548,-3.659277 -0.0456,-5.489418 -0.006,-1.760723 0.007,-3.521726 0.0689,-5.281499 0.0662,-1.799116 0.13824,-3.598421 0.15975,-5.39872 0.0291,-1.779013 0.0612,-3.557971 0.0952,-5.336899 0.05,-1.58622 0.11097,-3.172323 0.24858,-4.753849 0.11861,-1.677617 0.22144,-3.357528 0.21571,-5.04018 -0.006,-1.780749 -0.0291,-3.561297 -0.0685,-5.341628 -0.0156,-1.301343 -0.0233,-2.603134 -0.0571,-3.904018 -0.10959,-1.458275 -0.38038,-2.555599 -1.59583,-3.504919 -0.21099,-0.116654 -0.4145,-0.248019 -0.63299,-0.34996 -0.84683,-0.395121 -1.8338,-0.387336 -2.74929,-0.426171 z"
         sodipodi:nodetypes="ccccccccccccccccccccccccccccccccccccccccccccccccccccccccccccccccccccccccccccccccccsccsccccsssccccccccccccccccccccccccccccccccccccccccccccssccccccccccccccccccccccccccccccccccccccccccccccccccccccccccscsccsscccccccccccccccccccccccccccccscc" /></g><g
       inkscape:groupmode="layer"
       id="layer8"
       inkscape:label="ZIcon"
       style="display:none"><path
         style="display:inline;fill:#000000;stroke-width:0.264583"
         d="m 55.680115,178.92882 c 3.587002,-0.99333 15.205168,-6.0612 15.205168,-6.0612 0,0 -11.01531,6.68768 -14.578669,10.01621 -0.798382,0.74577 -0.190484,2.52414 0.876887,2.43151 4.292863,-0.37255 15.092484,-4.66188 20.259999,-7.43513 1.669022,-0.89572 1.5733,-2.78204 0.08499,-2.43241 -5.295845,1.24408 -16.141456,5.82163 -16.141456,5.82163 0,0 12.108362,-6.65812 14.576947,-9.84335 0.413693,-0.53379 -0.131134,-1.447 -0.788938,-1.37559 -3.966597,0.43064 -16.74587,5.02038 -19.805103,7.48103 -0.553304,0.44504 -0.140719,1.52216 0.310175,1.3973 z"
         id="path15-8-6"
         sodipodi:nodetypes="ccccccc"
         inkscape:path-effect="#path-effect15-0-54"
         inkscape:original-d="m 54.86112,178.71226 c -2.445087,2.21169 16.024163,-5.84464 16.024163,-5.84464 0,0 -17.529363,10.64253 -15.515186,11.75865 -0.297542,3.45006 23.94849,-6.5915 24.886353,-8.70829 1.826985,-3.38378 -18.869416,5.35145 -18.869416,5.35145 0,0 15.986222,-8.79047 14.966353,-11.00249 -0.19743,-1.78969 -23.759529,6.58928 -21.492267,8.44532 z"
         transform="matrix(0.65020563,0.33970251,-0.22324428,0.87048882,120.05046,-123.23894)" /><path
         style="display:inline;fill:#000000;stroke-width:0.264583"
         d="m 55.680115,178.92882 c 3.587002,-0.99333 15.205168,-6.0612 15.205168,-6.0612 0,0 -11.01531,6.68768 -14.578669,10.01621 -0.798382,0.74577 -0.190484,2.52414 0.876887,2.43151 4.292863,-0.37255 15.092484,-4.66188 20.259999,-7.43513 1.669022,-0.89572 1.5733,-2.78204 0.08499,-2.43241 -5.295845,1.24408 -16.141456,5.82163 -16.141456,5.82163 0,0 12.108362,-6.65812 14.576947,-9.84335 0.413693,-0.53379 -0.131134,-1.447 -0.788938,-1.37559 -3.966597,0.43064 -16.74587,5.02038 -19.805103,7.48103 -0.553304,0.44504 -0.140719,1.52216 0.310175,1.3973 z"
         id="path15-8-3"
         sodipodi:nodetypes="ccccccc"
         inkscape:path-effect="#path-effect15-0-4"
         inkscape:original-d="m 54.86112,178.71226 c -2.445087,2.21169 16.024163,-5.84464 16.024163,-5.84464 0,0 -17.529363,10.64253 -15.515186,11.75865 -0.297542,3.45006 23.94849,-6.5915 24.886353,-8.70829 1.826985,-3.38378 -18.869416,5.35145 -18.869416,5.35145 0,0 15.986222,-8.79047 14.966353,-11.00249 -0.19743,-1.78969 -23.759529,6.58928 -21.492267,8.44532 z"
         transform="matrix(0.48882551,0.24039141,-0.17152546,0.51702769,69.636627,-50.620099)" /></g><g
       inkscape:groupmode="layer"
       id="layer7"
       inkscape:label="SkeletonIcon"
       inkscape:highlight-color="#ffffff"
       style="display:inline"><path
         style="display:inline;fill:#000000;stroke-width:0.264583"
         id="path5"
         d="m 98.292885,234.82624 c -8.680799,-4.48983 -16.470315,-11.93072 -15.00066,-20.7921 0.765571,-4.61605 5.79606,-11.01544 9.795137,-13.5047 2.011269,-1.25193 3.826261,-1.61336 6.837066,-2.52212 l -0.593828,-3.4701 c -0.321731,0.0777 -0.450527,0.19119 -0.804873,0.25453 -3.077386,0.55014 -5.269837,1.47886 -9.697988,4.54937 -2.634661,1.82689 -8.003276,6.84988 -9.350733,11.94556 -0.267325,1.01094 -0.868817,5.00685 0.01287,8.78662 1.004539,4.30636 5.606377,9.67778 8.971911,11.63074 5.997192,3.95877 7.242665,5.01559 10.008117,6.43846 z"
         sodipodi:nodetypes="csccsssscccc"
         inkscape:path-effect="#path-effect9"
         inkscape:original-d="m 98.292885,234.82624 c -11.095134,-5.73856 -20.734268,-16.29797 -11.445733,-28.48248 6.057326,-6.84391 7.558219,-6.67061 13.077276,-8.33644 l -0.593828,-3.4701 c -0.321731,0.0777 -0.450527,0.19119 -0.804873,0.25453 -3.077386,0.55014 -5.269837,1.47886 -9.697988,4.54937 -2.088544,1.44821 -1.836066,1.36013 -4.400482,3.7861 -5.210117,4.92885 -4.330546,7.39489 -5.573371,9.9473 -0.557339,1.14462 0.555774,11.34283 4.124887,14.20518 4.425651,3.67189 3.014772,2.99206 5.483017,4.42434 5.997192,3.95877 7.242665,5.01559 10.008117,6.43846 z"
         transform="translate(-3.79843,-136.05164)"
         inkscape:export-filename="ExportedSVG.svg"
         inkscape:export-xdpi="96.036186"
         inkscape:export-ydpi="96.036186" /><path
         style="display:inline;fill:#000000;stroke-width:0.264583"
         id="path9"
         d="m 96.004598,61.964489 c 5.096542,-1.24348 9.644362,-0.84956 15.392512,0.0657 0.3221,0.0513 0.63108,0.16499 0.94663,0.24749 6.82636,2.32744 11.91707,4.66427 13.80019,14.80453 -0.0111,0.55201 -0.009,1.1041 -0.007,1.65618 -0.10139,5.164501 -3.15822,8.299819 -6.2863,11.822769 -0.61639,2.51876 0.11183,7.61715 0.56227,11.893402 -8.53518,3.12909 -8.43932,2.64832 -17.4577,2.37089 -0.11179,-0.008 -0.22354,-0.0164 -0.33538,-0.0237 -2.734147,0.13601 -2.61085,-0.11889 -4.923292,-1.5165 -1.06352,-5.760042 -0.10659,-0.44167 -0.86761,-4.896522 -0.49494,-2.22237 -2.133064,-1.36832 -2.324184,-0.79272 l -0.24451,3.023012 c -0.14899,1.84214 0.19115,3.26308 0.98005,4.37412 2.363744,2.81363 20.162036,5.21402 26.846466,-0.79463 0.10424,-0.14556 0.44804,-0.69799 0.43846,-0.87677 -0.20017,-3.736692 -0.52857,-7.652612 -0.84146,-11.377742 0.97971,-0.90358 3.1192,-2.04391 5.30897,-6.32532 0.0716,-0.146 0.12747,-0.29922 0.18791,-0.45018 1.80921,-3.365508 1.25761,-6.713449 1.15964,-10.492989 -2.66123,-11.14242 -14.36094,-14.75326 -14.98119,-14.92447 -10.59561,-2.75223 -10.47431,-1.61683 -17.841806,-1.26317 -0.90356,2.57077 0.33929,2.35181 0.487334,3.47663 z"
         sodipodi:nodetypes="csccccccccccsccscssccccc" /><path
         style="display:inline;fill:#000000;stroke-width:0.264583"
         id="path10"
         d="m 84.031918,84.581448 3.193549,1.88856 c 0.628636,1.75015 1.034708,2.55853 2.639197,4.12724 1.016939,0.89721 3.29332,2.92048 3.86312,1.29206 -0.34177,-0.26289 0.70335,2.54757 1.7174,1.5812 l 0.14222,-0.44003 -0.66296,-2.3085 -0.19647,-1.84682 c -0.59134,-3.30817 -1.11207,-1.70525 -9.445499,-5.958068 -0.176154,-0.0899 -1.272653,-1.12351 -2.151569,-0.35774 -0.702463,0.89316 0.03604,1.63334 0.901012,2.022098 z"
         sodipodi:nodetypes="cccccccsscc"
         inkscape:label="path10" /><path
         style="display:inline;fill:#000000;stroke-width:0.264583"
         id="path11"
         d="m 108.12232,84.706318 c 1.81806,-0.486708 0.53483,-1.551138 0.29594,-1.634528 -0.23889,-0.0834 -13.182236,-0.17831 -13.966026,0.48317 -0.21034,0.009 -1.45075,1.097618 0.73222,1.021548 0,0 -0.0902,0.3662 0.14206,0.6984 0.45158,0.64598 5.614726,0.31196 5.614726,0.31196 2.30794,-0.0388 5.54339,-0.44213 7.18108,-0.88055 z"
         sodipodi:nodetypes="zzccscz" /><path
         style="display:inline;fill:#000000;stroke-width:0.264583"
         d="m 97.928288,86.362318 c -0.34421,1.34034 4.141022,2.11918 6.423912,1.55596 2.28289,-0.56322 2.69334,-1.37325 2.82297,-1.14474 0.12964,0.22851 -2.37683,2.66936 -1.18921,3.21195 1.18762,0.54259 4.59709,-5.05596 3.1675,-5.35696 -1.42959,-0.300998 -1.35678,0.43732 -1.91161,0.33342 -0.55483,-0.10391 -3.1314,1.41354 -3.93437,1.63376 -0.80297,0.22021 -5.034972,-1.57373 -5.379192,-0.23339 z"
         id="path12"
         sodipodi:nodetypes="zzzzzzzz" /><path
         style="display:inline;fill:#000000;stroke-width:0.174904"
         id="path11-4"
         d="m 116.30633,84.08153 c -1.22197,-0.13567 -0.50791,-0.9718 -0.36287,-1.05148 0.14503,-0.0797 8.46937,-1.47003 9.04379,-1.11261 0.13638,-0.0157 1.04987,0.57768 -0.36378,0.75122 0,0 0.0967,0.23313 -0.0178,0.47682 -0.22268,0.47386 -3.58247,0.78234 -3.58247,0.78234 -1.4902,0.21103 -3.61606,0.27592 -4.71681,0.15371 z"
         sodipodi:nodetypes="zzccscz" /><path
         style="display:inline;fill:#000000;stroke-width:0.174904"
         d="m 123.04495,84.13204 c 0.36294,0.851828 -2.44303,1.827328 -3.97238,1.688698 -1.52936,-0.13865 -1.87904,-0.63267 -1.93843,-0.46811 -0.0593,0.16454 1.81188,1.52298 1.10436,2.0039 -0.70753,0.48093 -3.49313,-2.87485 -2.60434,-3.220698 0.8888,-0.34585 0.91975,0.15033 1.26606,0.0246 0.34631,-0.12565 2.16536,0.614398 2.70561,0.677778 0.54028,0.0634 3.07618,-1.557988 3.43912,-0.706178 z"
         id="path12-7"
         sodipodi:nodetypes="zzzzzzzz"
         inkscape:label="path12-7" /><path
         style="display:inline;fill:#000000;stroke-width:0.264583"
         d="m 108.37032,93.095418 c -1.88611,-1.32028 1.59684,-6.19563 3.13566,-6.66427 1.95004,-0.60202 6.85922,4.26367 4.62098,5.9884 -2.23876,0.86067 -3.33244,-3.28237 -3.34785,-2.96276 -0.73479,1.5191 -2.52267,4.95891 -4.40879,3.63863 z"
         id="path13"
         sodipodi:nodetypes="zcccz" /><path
         style="display:inline;fill:#000000;stroke-width:0.264583"
         d="m 101.59278,104.89745 c -0.15287,-3.69414 -0.42638,-4.71642 -0.33119,-7.242812 0.88428,-1.11491 1.74783,4.069582 1.80325,7.192302 -1.13379,-0.0448 -0.0189,0.0659 -1.47206,0.0505 z"
         id="path14"
         sodipodi:nodetypes="cccc" /><path
         style="display:inline;fill:#000000;stroke-width:0.244383"
         d="m 106.89105,105.9419 c -0.13442,-3.58426 -0.37491,-4.57614 -0.29121,-7.027392 0.77753,-1.08176 1.53684,3.948552 1.58557,6.978392 -0.99692,-0.0435 -0.0166,0.0639 -1.29436,0.049 z"
         id="path14-4"
         sodipodi:nodetypes="cccc" /><path
         style="display:inline;fill:#000000;stroke-width:0.264583"
         d="m 114.69233,105.68178 c -0.52999,-3.65911 -0.4494,-4.71428 -1.00818,-7.179942 -1.07446,-0.93301 -0.96856,4.321842 -0.44797,7.401362 1.10615,-0.25281 0.0307,0.0613 1.45619,-0.22143 z"
         id="path14-48"
         sodipodi:nodetypes="cccc" /><path
         style="display:inline;fill:#000000;stroke-width:0.248747"
         d="m 117.45363,104.62953 c -0.23612,-3.61717 -0.51085,-4.62855 -0.49144,-7.093302 0.77135,-1.04977 1.69048,4.055922 1.82323,7.110242 -1.02796,-0.0949 -0.0154,0.0635 -1.33181,-0.017 z"
         id="path14-48-1"
         sodipodi:nodetypes="cccc"
         inkscape:transform-center-x="-0.94743728"
         inkscape:transform-center-y="1.0981634" /></g></g></svg>
